<svg xmlns="http://www.w3.org/2000/svg" version="1.1" xmlns:xlink="http://www.w3.org/1999/xlink" xmlns:svgjs="http://svgjs.dev/svgjs" width="2000" height="767" viewBox="0 0 2000 767"><g transform="matrix(1,0,0,1,-1.2121212121212466,0.6826478042854092)"><svg viewBox="0 0 396 152" data-background-color="#ffffff" preserveAspectRatio="xMidYMid meet" height="767" width="2000" xmlns="http://www.w3.org/2000/svg" xmlns:xlink="http://www.w3.org/1999/xlink"><g id="tight-bounds" transform="matrix(1,0,0,1,0.2400000000000091,-0.13528352835903945)"><svg viewBox="0 0 395.52 152.27056705671808" height="152.27056705671808" width="395.52"><g><svg viewBox="0 0 730.14186117707 281.09606399999996" height="152.27056705671808" width="395.52"><g transform="matrix(1,0,0,1,334.62186117707,27.18242690445858)"><svg viewBox="0 0 395.52 226.7312101910828" height="226.7312101910828" width="395.52"><g id="textblocktransform"><svg viewBox="0 0 395.52 226.7312101910828" height="226.7312101910828" width="395.52" id="textblock"><g><svg viewBox="0 0 395.52 226.7312101910828" height="226.7312101910828" width="395.52"><g transform="matrix(1,0,0,1,0,0)"><svg width="395.52" viewBox="3.98 -35.16 61.330000000000005 35.16" height="226.7312101910828" data-palette-color="#000000"><path d="M13.67-13.13L13.67 0 3.98 0 3.98-35.16 21.26-35.16Q23.71-35.16 25.98-34.58 28.25-34.01 29.99-32.78 31.74-31.54 32.78-29.59 33.81-27.64 33.81-24.85L33.81-24.85Q33.81-22.68 32.9-20.76 31.98-18.85 30.46-17.35 28.93-15.84 26.95-14.86 24.98-13.87 22.85-13.55L22.85-13.55Q23.8-11.94 24.84-10.5 25.88-9.06 26.94-7.8 28-6.54 29.05-5.48 30.1-4.42 31.05-3.54L31.05-3.54Q33.3-1.49 35.5 0L35.5 0 23.41 0Q21.95-1.39 20.63-3.34L20.63-3.34Q19.51-5 18.37-7.46 17.24-9.91 16.63-13.13L16.63-13.13 13.67-13.13ZM23.97-24.85L23.97-24.85Q23.97-28.39 22.25-30.05 20.53-31.71 17.09-31.71L17.09-31.71 13.67-31.71 13.67-16.46 17.09-16.46Q18.92-16.46 20.23-17.15 21.53-17.85 22.36-19.01 23.19-20.17 23.58-21.68 23.97-23.19 23.97-24.85ZM65.31-4.49L65.31 0 40.06 0 40.06-35.16 65.31-35.16 65.31-30.66 49.75-30.66 49.75-19.8 61.77-19.8 61.77-15.33 49.75-15.33 49.75-4.49 65.31-4.49Z" opacity="1" transform="matrix(1,0,0,1,0,0)" fill="#000000" class="wordmark-text-0" data-fill-palette-color="primary" id="text-0"></path></svg></g></svg></g></svg></g></svg></g><g><svg viewBox="0 0 281.09606399999996 281.09606399999996" height="281.09606399999996" width="281.09606399999996"><g><svg></svg></g><g id="icon-0"><svg viewBox="0 0 281.09606399999996 281.09606399999996" height="281.09606399999996" width="281.09606399999996"><g><path transform="scale(2.81096,2.81096)" d="M30 100c-16.569 0-30-13.431-30-30v-40c0-16.569 13.431-30 30-30h40c16.569 0 30 13.431 30 30v40c0 16.569-13.431 30-30 30z" fill="#000000" fill-rule="nonzero" stroke="none" stroke-width="1" stroke-linecap="butt" stroke-linejoin="miter" stroke-miterlimit="10" stroke-dasharray="" stroke-dashoffset="0" font-family="none" font-weight="none" font-size="none" text-anchor="none" style="mix-blend-mode: normal" data-fill-palette-color="accent"></path></g><g transform="matrix(1,0,0,1,98.41603163105302,56.219212799999994)"><svg viewBox="0 0 84.26400073789391 168.65763839999997" height="168.65763839999997" width="84.26400073789391"><g><svg xmlns="http://www.w3.org/2000/svg" xmlns:xlink="http://www.w3.org/1999/xlink" version="1.1" x="0" y="0" viewBox="85 20 130 260.2" enable-background="new 0 0 300 300" xml:space="preserve" height="168.65763839999997" width="84.26400073789391" class="icon-dxe-0" data-fill-palette-color="quaternary" id="dxe-0"><path d="M134 29C134 26.2 131.8 24 129 24S124 26.2 124 29V58.3C123.3 60.1 121.5 61.3 119.6 61.3 117.6 61.3 115.8 60 115.1 58.1 115.1 58 115.1 58 115 57.9V29C115 26.2 112.8 24 110 24S105 26.2 105 29V57.1C104.8 57.4 104.6 57.7 104.5 58.1 103.8 60 102 61.3 100 61.3S96.2 60 95.5 58.1C95.4 57.7 95.2 57.4 95 57.1V29C95 26.2 92.8 24 90 24S85 26.2 85 29V76.4C85 84.1 89 91.4 95 96V261.4C95 269.6 101.8 276.2 110 276.2S125 269.6 125 261.4V96C131 91.4 134 84.1 134 76.4V59.7C134 59 134.2 58.4 134 57.8zM124 76.3C124 81.5 121.6 86.3 117.1 88.9 115.6 89.8 115 91.4 115 93.2V261.3C115 263.9 112.6 266.1 110 266.1S105 264 105 261.3V93.3C105 91.5 103.9 89.9 102.4 89 97.9 86.4 95 81.6 95 76.4V70.5C97 71 98.2 71.3 99.9 71.3 103.6 71.3 107.1 69.9 109.7 67.6 112.3 69.9 115.6 71.3 119.3 71.3 121 71.3 122.9 71 123.9 70.5V76.3zM210 20C191.3 20 176 35.2 176 54V150.6C176 151.9 176.4 153.1 177.3 154L186 163.5V265.7C186 273.7 192.5 280.2 200.5 280.2S215 273.7 215 265.7V25C215 22.2 212.7 20 210 20M186 54C186 42.5 194 32.9 205 30.5V156H193.2L186 148.6zM205 265.5C205 268 203 270 200.5 270S196 268 196 265.5V166H205z" fill="#ffffff" data-fill-palette-color="quaternary"></path></svg></g></svg></g></svg></g></svg></g></svg></g><defs></defs></svg><rect width="395.52" height="152.27056705671808" fill="none" stroke="none" visibility="hidden"></rect></g></svg></g></svg>